<svg xmlns="http://www.w3.org/2000/svg" width="38.321" height="38.309" viewBox="0 0 38.321 38.309">
  <g id="Сгруппировать_14314" data-name="Сгруппировать 14314" transform="translate(0)">
    <g id="Сгруппировать_14313" data-name="Сгруппировать 14313">
      <path id="Контур_14323" data-name="Контур 14323" d="M-707.688,1.1q4.676,0,9.352,0a4.074,4.074,0,0,1,4.121,2.87A5.052,5.052,0,0,1-694,5.436q.021,9.352.007,18.7a4.1,4.1,0,0,1-3.173,4.194,4.765,4.765,0,0,1-1.137.132q-9.373.012-18.747,0a4.153,4.153,0,0,1-4.322-4.32q-.007-9.373,0-18.746A4.115,4.115,0,0,1-718.1,1.2a5.229,5.229,0,0,1,1.144-.1Q-712.321,1.092-707.688,1.1Zm.026,2.771q-4.72,0-9.44,0a1.323,1.323,0,0,0-1.487,1.46q0,9.44,0,18.88a1.325,1.325,0,0,0,1.468,1.48q9.44.006,18.88,0a1.327,1.327,0,0,0,1.467-1.482q0-9.419,0-18.838a1.336,1.336,0,0,0-1.492-1.5Q-702.963,3.869-707.662,3.87Z" transform="translate(732.31 9.837)" fill="#fff"/>
      <path id="Контур_14324" data-name="Контур 14324" d="M-803.69-94.9q4.676,0,9.352,0a4.076,4.076,0,0,1,4.121,2.872A5.658,5.658,0,0,1-790-90.6c.034.781.013,1.565.008,2.348a1.444,1.444,0,0,1-1.408,1.59,1.448,1.448,0,0,1-1.371-1.583c0-.84.006-1.68,0-2.519a1.306,1.306,0,0,0-1.373-1.36q-9.523,0-19.046,0a1.312,1.312,0,0,0-1.4,1.463q-.005,5.85,0,11.7,0,3.566,0,7.131a1.343,1.343,0,0,0,1.51,1.525c.826,0,1.651-.009,2.477,0a1.427,1.427,0,0,1,1.406.972,1.334,1.334,0,0,1-.507,1.51,1.376,1.376,0,0,1-.7.274,23.246,23.246,0,0,1-3.283-.041,4.064,4.064,0,0,1-3.686-4.3q0-5.231,0-10.462c0-2.761-.006-5.523,0-8.284A4.11,4.11,0,0,1-814.1-94.8a5.236,5.236,0,0,1,1.144-.1Q-808.323-94.907-803.69-94.9Z" transform="translate(817.379 94.901)" fill="#fff"/>
      <path id="Контур_14326" data-name="Контур 14326" d="M-666.017,58.928c-1.828,0-3.605,0-5.383,0a1.355,1.355,0,0,1-1.465-1.365,1.349,1.349,0,0,1,1.459-1.368c1.778,0,3.556,0,5.367,0,.007-.134.02-.256.02-.378q0-2.5,0-5a1.366,1.366,0,0,1,1.354-1.478,1.448,1.448,0,0,1,1.394,1.5c-.048,1.763-.015,3.529-.015,5.333.127.007.248.019.37.019,1.651,0,3.3.033,4.953-.012a1.45,1.45,0,0,1,1.512,1.39,1.456,1.456,0,0,1-1.533,1.37c-1.748-.046-3.5-.013-5.281-.013-.008.134-.02.256-.02.378q0,2.5,0,5a1.374,1.374,0,0,1-1.385,1.456,1.375,1.375,0,0,1-1.347-1.451C-666.018,62.53-666.017,60.753-666.017,58.928Z" transform="translate(689.326 -32.911)" fill="#fff"/>
    </g>
  </g>
</svg>
