<svg id="Canvas" xmlns="http://www.w3.org/2000/svg" xmlns:xlink="http://www.w3.org/1999/xlink" width="77.592" height="22.622" viewBox="0 0 77.592 22.622">
  <defs>
    <linearGradient id="linear-gradient" x1="1.122" y1="-0.182" x2="-0.407" y2="1.618" gradientUnits="objectBoundingBox">
      <stop offset="0" stop-color="#0cc"/>
      <stop offset="0.428" stop-color="#0cc"/>
      <stop offset="1" stop-color="#39f"/>
    </linearGradient>
  </defs>
  <g id="logo_01" transform="translate(0 0)">
    <g id="Shape_1_copy_4" data-name="Shape 1 copy 4" transform="translate(41.325 2.139)">
      <path id="Path_17672" data-name="Path 17672" d="M35.831,7.236a2.83,2.83,0,0,1,.022,2.987A69.092,69.092,0,0,1,31.2,15.431a5.07,5.07,0,0,1-3.234,1.839H3.505C.2,17.27,0,16.149,0,13.615V3.336C0,.748.764,0,3.021,0H27.965a4.813,4.813,0,0,1,3.4,1.81C32.381,2.841,35.409,6.631,35.831,7.236Z" transform="translate(0 0)" fill="#3cc" fill-rule="evenodd"/>
      <path id="Path_17673" data-name="Path 17673" d="M35.831,7.236a2.83,2.83,0,0,1,.022,2.987A69.092,69.092,0,0,1,31.2,15.431a5.07,5.07,0,0,1-3.234,1.839H3.505C.2,17.27,0,16.149,0,13.615V3.336C0,.748.764,0,3.021,0H27.965a4.813,4.813,0,0,1,3.4,1.81C32.381,2.841,35.409,6.631,35.831,7.236Z" transform="translate(0 0)" fill-rule="evenodd" fill="url(#linear-gradient)"/>
    </g>
    <g id="Shape_1_copy_4-2" data-name="Shape 1 copy 4" transform="translate(43.749 5.133)">
      <path id="Path_17674" data-name="Path 17674" d="M3.121.981V.913c0-.33-.028-.657-.569-.657H.508C.033.256,0,.519,0,.927V3.643A8.56,8.56,0,0,1,3.121.981ZM16.834,10.8v-.146h0V4.113Q16.836,0,13.22,0a3.6,3.6,0,0,0-1.9.519A6.856,6.856,0,0,0,9.669,1.968,2.883,2.883,0,0,0,8.493.479,3.876,3.876,0,0,0,6.456,0,4.724,4.724,0,0,0,3.573.993C3.395,1.171,0,3.841,0,6.584V10.77c0,.133-.064.638.5.638H2.632c.662,0,.6-.433.6-.611V4.027c.359-.476,1.093-1.653,2.285-1.653a1.09,1.09,0,0,1,.989.465,2.992,2.992,0,0,1,.3,1.558V9.683h0V10.77c0,.133-.064.638.5.638h2.1c.662,0,.6-.433.6-.611v-.146h0V4.027c.385-.476,1.152-1.653,2.285-1.653a1.122,1.122,0,0,1,1.009.465A2.925,2.925,0,0,1,13.608,4.4V9.684h0V10.77c0,.133-.064.638.5.638h2.129C16.9,11.408,16.834,10.975,16.834,10.8Zm11.72-2.658a4.871,4.871,0,0,1-4.815,3.173,5.165,5.165,0,0,1-5.4-5.542c0-3.285,2.231-5.666,5.3-5.666,3.037,0,5.074,2.115,5.2,5.522.017.435-.111.82-.655.82h-6.9c.041,1.827.922,2.812,2.476,2.812a2.145,2.145,0,0,0,2-1.21.768.768,0,0,1,.649-.329h1.778a.359.359,0,0,1,.368.419Zm-4.916-5.92A2.371,2.371,0,0,0,21.284,4.6h4.625A2.294,2.294,0,0,0,23.638,2.218Z" transform="translate(0 0)" fill="#fff" fill-rule="evenodd"/>
    </g>
    <g id="Shape_1_copy_4-3" data-name="Shape 1 copy 4" transform="translate(0 0)">
      <path id="Path_17675" data-name="Path 17675" d="M12.705,2.233A4.01,4.01,0,0,0,11.66,1.117,5.165,5.165,0,0,0,10.3.435,7.7,7.7,0,0,0,8.648.092,19.1,19.1,0,0,0,6.712,0H1.045A.984.984,0,0,0,0,.966v9.188a8.668,8.668,0,0,0,3.706,3.934V12.266A1.064,1.064,0,0,1,4.731,11.09H6.406a8.315,8.315,0,0,0,5.284-1.454,5.182,5.182,0,0,0,1.822-4.313,6.767,6.767,0,0,0-.19-1.636A5.1,5.1,0,0,0,12.705,2.233ZM9.4,6.952a1.985,1.985,0,0,1-.839.788,3.388,3.388,0,0,1-1.212.321q-.687.061-1.419.061H4.342c-.389,0-.634-.317-.634-.785V3.581a.552.552,0,0,1,.6-.6H5.934q.793,0,1.487.046a3.259,3.259,0,0,1,1.2.291,1.809,1.809,0,0,1,.8.75,2.885,2.885,0,0,1,.289,1.423A2.873,2.873,0,0,1,9.4,6.952Zm-5.7,7.73A10.248,10.248,0,0,1,0,12.324V16.76a.635.635,0,0,0,.639.723H3.113c.678,0,.595-.723.595-.723V14.682ZM38.742,4.834H36.523a.894.894,0,0,0-.927.685c-.179.5-2.53,7.045-2.53,7.045s-2.25-6.414-2.427-6.911a1.027,1.027,0,0,0-.991-.82H27.609c-.719,0-.719.565-.63.789.072.181,2.864,7.833,3.927,10.748a4.271,4.271,0,0,1,.357,1.15,3,3,0,0,1-.431,1.1,2.772,2.772,0,0,1-.282.4c2.085-.624,4.487-2.889,5.729-5.342,1.229-3.419,2.849-7.936,2.919-8.167C39.313,5.132,39.312,4.834,38.742,4.834Zm-9.8,14.832a5.287,5.287,0,0,1-.576-.042c-.234-.031-.671.013-.671.4v1.713c0,.654.313.7.485.736a7.262,7.262,0,0,0,1.575.152,4.1,4.1,0,0,0,1.83-.383,4.387,4.387,0,0,0,1.373-1.063,7.534,7.534,0,0,0,1.06-1.621q.465-.941.892-2.072s.122-.341.323-.9C34.623,17.2,31.738,19.936,28.945,19.666Zm-3.332-12.8a2.978,2.978,0,0,0-.487-.787,3.411,3.411,0,0,0-.687-.589,5.036,5.036,0,0,0-.869-.451,6.5,6.5,0,0,0-.953-.29A7.731,7.731,0,0,0,21.5,4.589q-.611-.045-1.373-.046-5.042,0-5.741,3.187a.533.533,0,0,0,.5.7H16.95c.54,0,.517-.174.779-.662a1.449,1.449,0,0,1,.489-.669A2.9,2.9,0,0,1,20,6.638a2.537,2.537,0,0,1,1.662.443,1.949,1.949,0,0,1,.61,1.346c0,.7-.218,1.164-1.062,1.164a11.543,11.543,0,0,0-5.514.872,4.092,4.092,0,0,0-1.949,3.609,3.7,3.7,0,0,0,.328,1.606,3.225,3.225,0,0,0,.915,1.155,3.931,3.931,0,0,0,1.4.7,6.465,6.465,0,0,0,1.769.23,7.63,7.63,0,0,0,2.372-.337,8.855,8.855,0,0,0,1.883-1.07v.394c0,.39.119.738.584.738h2.4c.487,0,.595-.348.595-.776V9.3A9.152,9.152,0,0,0,25.9,7.923,4.324,4.324,0,0,0,25.613,6.867ZM22.335,14.13s-.621,1.29-2.837,1.29a2.483,2.483,0,0,1-1.487-.413,1.476,1.476,0,0,1-.572-1.285,1.643,1.643,0,0,1,.931-1.6,7.081,7.081,0,0,1,2.791-.466c.93.022,1.174.609,1.174,1.015V14.13Z" transform="translate(0 0)" fill="#333" fill-rule="evenodd"/>
    </g>
  </g>
</svg>
